0
SECTION
2
HEADER
9
$INSUNITS
70
4
9
$ACADVER
1
AC1014
9
$HANDSEED
5
FFFF
0
ENDSEC
0
SECTION
2
TABLES
0
TABLE
2
VPORT
5
8
100
AcDbSymbolTable
0
ENDTAB
0
TABLE
2
LTYPE
5
5
100
AcDbSymbolTable
0
LTYPE
5
14
100
AcDbSymbolTableRecord
100
AcDbLinetypeTableRecord
2
BYBLOCK
70
0
0
LTYPE
5
15
100
AcDbSymbolTableRecord
100
AcDbLinetypeTableRecord
2
BYLAYER
70
0
0
ENDTAB
0
TABLE
2
LAYER
5
2
100
AcDbSymbolTable
70
2
0
LAYER
5
50
100
AcDbSymbolTableRecord
100
AcDbLayerTableRecord
2
0
70
0
6
CONTINUOUS
0
ENDTAB
0
TABLE
2
STYLE
5
3
100
AcDbSymbolTable
70
1
0
STYLE
5
11
100
AcDbSymbolTableRecord
100
AcDbTextStyleTableRecord
2
STANDARD
70
0
0
ENDTAB
0
TABLE
2
VIEW
5
6
100
AcDbSymbolTable
70
0
0
ENDTAB
0
TABLE
2
UCS
5
7
100
AcDbSymbolTable
70
0
0
ENDTAB
0
TABLE
2
APPID
5
9
100
AcDbSymbolTable
70
2
0
APPID
5
12
100
AcDbSymbolTableRecord
100
AcDbRegAppTableRecord
2
ACAD
70
0
0
ENDTAB
0
TABLE
2
DIMSTYLE
5
A
100
AcDbSymbolTable
70
1
0
ENDTAB
0
TABLE
2
BLOCK_RECORD
5
1
100
AcDbSymbolTable
70
1
0
BLOCK_RECORD
5
1F
100
AcDbSymbolTableRecord
100
AcDbBlockTableRecord
2
*MODEL_SPACE
0
BLOCK_RECORD
5
1B
100
AcDbSymbolTableRecord
100
AcDbBlockTableRecord
2
*PAPER_SPACE
0
ENDTAB
0
ENDSEC
0
SECTION
2
BLOCKS
0
BLOCK
5
20
100
AcDbEntity
100
AcDbBlockBegin
2
*MODEL_SPACE
0
ENDBLK
5
21
100
AcDbEntity
100
AcDbBlockEnd
0
BLOCK
5
1C
100
AcDbEntity
100
AcDbBlockBegin
2
*PAPER_SPACE
0
ENDBLK
5
1D
100
AcDbEntity
100
AcDbBlockEnd
0
ENDSEC
0
SECTION
2
ENTITIES
0
CIRCLE
5
100
100
AcDbEntity
8
0
100
AcDbCircle
10
301.63916181164927
20
6.3500181163765763
30
2.2204460492503131e-15
40
1.4999999999999856
210
0
220
2.775557561562892e-17
230
1
0
LWPOLYLINE
5
101
100
AcDbEntity
8
0
100
AcDbPolyline
90
4
70
1
43
0.0
10
122.13916181164919
20
84.52542511637661
10
108.13846181164919
20
84.52542511637661
10
108.13846181164919
20
70.526125116376605
10
122.13916181164919
20
70.526125116376605
0
LWPOLYLINE
5
102
100
AcDbEntity
8
0
100
AcDbPolyline
90
4
70
1
43
0.0
10
164.84834617078081
20
84.563137612338664
10
150.84936991411016
20
84.537354571979051
10
150.87515350700295
20
70.538078315817174
10
164.87412976367358
20
70.563861356176815
0
LWPOLYLINE
5
103
100
AcDbEntity
8
0
100
AcDbPolyline
90
4
70
1
43
0.0
10
50.989861811649178
20
89.576125116376602
10
64.989161811649154
20
89.576125116376602
10
64.989161811649154
20
103.57542511637659
10
50.989861811649178
20
103.57542511637661
0
LWPOLYLINE
5
104
100
AcDbEntity
8
0
100
AcDbPolyline
90
4
70
1
43
0.0
10
108.13846181164919
20
89.576125116376602
10
122.13916181164919
20
89.576125116376602
10
122.13916181164919
20
103.57542511637659
10
108.13846181164919
20
103.57542511637661
0
LWPOLYLINE
5
105
100
AcDbEntity
8
0
100
AcDbPolyline
90
4
70
1
43
0.0
10
84.039161811649166
20
103.57542511637659
10
70.039861811649189
20
103.57542511637659
10
70.039861811649189
20
89.576125116376602
10
84.039161811649166
20
89.576125116376573
0
LWPOLYLINE
5
106
100
AcDbEntity
8
0
100
AcDbPolyline
90
4
70
1
43
0.0
10
183.88901159599925
20
89.648914903460692
10
183.86322800310643
20
103.64819115962254
10
169.86425174643574
20
103.62240811926291
10
169.89003533932856
20
89.623131863101065
0
LWPOLYLINE
5
107
100
AcDbEntity
8
0
100
AcDbPolyline
90
4
70
1
43
0.0
10
164.83904390619446
20
89.613829045981547
10
164.81326031330167
20
103.61310530214341
10
150.81428405663098
20
103.58732226178375
10
150.8400676495238
20
89.588046005621905
0
LWPOLYLINE
5
108
100
AcDbEntity
8
0
100
AcDbPolyline
90
4
70
1
43
0.0
10
26.889361811649195
20
103.57542511637659
10
12.889811811649174
20
103.57542511637655
10
12.889811811649174
20
89.576125116376602
10
26.889361811649195
20
89.576125116376573
0
LWPOLYLINE
5
109
100
AcDbEntity
8
0
100
AcDbPolyline
90
4
70
1
43
0.0
10
207.86416181164921
20
103.57542511637661
10
193.86516181164919
20
103.57542511637661
10
193.86516181164919
20
89.576125116376602
10
207.86416181164921
20
89.576125116376602
0
LWPOLYLINE
5
110
100
AcDbEntity
8
0
100
AcDbPolyline
90
4
70
1
43
0.0
10
103.08916181164918
20
89.576125116376616
10
103.08916181164918
20
103.57542511637659
10
89.089861811649172
20
103.57542511637661
10
89.089861811649172
20
89.576125116376573
0
LWPOLYLINE
5
111
100
AcDbEntity
8
0
100
AcDbPolyline
90
4
70
1
43
0.0
10
45.939161811649178
20
89.576125116376616
10
45.939161811649178
20
103.57542511637659
10
31.939861811649166
20
103.57542511637661
10
31.939861811649166
20
89.576125116376573
0
LWPOLYLINE
5
112
100
AcDbEntity
8
0
100
AcDbPolyline
90
4
70
1
43
0.0
10
145.7890762163897
20
89.578743188502386
10
145.76329262349691
20
103.57801944466425
10
131.76231637021834
20
103.55223272075007
10
131.78809996311116
20
89.552956464588163
0
CIRCLE
5
113
100
AcDbEntity
8
0
100
AcDbCircle
10
14.365246411649174
20
6.3500181163766234
30
0
40
1.4999999999999991
210
0
220
-2.775557561562892e-17
230
1
0
CIRCLE
5
114
100
AcDbEntity
8
0
100
AcDbCircle
10
144.44236270843567
20
6.3500181163766234
30
0
40
1.5000000000000036
210
0
220
-0
230
1
0
CIRCLE
5
115
100
AcDbEntity
8
0
100
AcDbCircle
10
144.44236270843567
20
110.59982511637655
30
2.2204460492503131e-15
40
1.4999999999999856
210
0
220
2.775557561562892e-17
230
1
0
LWPOLYLINE
5
116
100
AcDbEntity
8
0
100
AcDbPolyline
90
4
70
1
43
0.0
10
122.13916181164919
20
46.425325116376619
10
108.13846181164919
20
46.425325116376619
10
108.13846181164919
20
32.425925116376618
10
122.13916181164919
20
32.425925116376625
0
LWPOLYLINE
5
117
100
AcDbEntity
8
0
100
AcDbPolyline
90
4
70
1
43
0.0
10
207.86416181164921
20
32.425925116376618
10
207.86416181164921
20
46.425325116376619
10
193.86516181164919
20
46.425325116376627
10
193.86516181164919
20
32.425925116376618
0
LWPOLYLINE
5
118
100
AcDbEntity
8
0
100
AcDbPolyline
90
4
70
1
43
0.0
10
89.089861811649172
20
46.425325116376612
10
89.089861811649172
20
32.425925116376618
10
103.08916181164918
20
32.425925116376625
10
103.08916181164918
20
46.425325116376612
0
LWPOLYLINE
5
119
100
AcDbEntity
8
0
100
AcDbPolyline
90
4
70
1
43
0.0
10
183.96848575972166
20
46.498188090377923
10
169.96950950305092
20
46.472405050018295
10
169.99529328012144
20
32.47302879402605
10
183.99426953679216
20
32.498811834385648
0
CIRCLE
5
120
100
AcDbEntity
8
0
100
AcDbCircle
10
14.36524641164918
20
110.59982511637658
30
2.2204460492503131e-15
40
1.4999999999999991
210
0
220
-2.775557561562892e-17
230
1
0
CIRCLE
5
121
100
AcDbEntity
8
0
100
AcDbCircle
10
171.56204551486275
20
110.59982511637655
30
2.2204460492503131e-15
40
1.4999999999999856
210
0
220
2.775557561562892e-17
230
1
0
CIRCLE
5
122
100
AcDbEntity
8
0
100
AcDbCircle
10
171.56204551486275
20
6.3500181163766189
30
2.2204460492503131e-15
40
1.5000000000000036
210
0
220
-0
230
1
0
LWPOLYLINE
5
123
100
AcDbEntity
8
0
100
AcDbPolyline
90
4
70
1
43
0.0
10
164.91851806991684
20
46.46310223289877
10
150.91954181324616
20
46.43731919253915
10
150.94532559031671
20
32.437942936546889
10
164.94430184698734
20
32.463725976906488
0
LWPOLYLINE
5
124
100
AcDbEntity
8
0
100
AcDbPolyline
90
4
70
1
43
0.0
10
84.039161811649166
20
32.425925116376625
10
84.039161811649166
20
46.425325116376619
10
70.039861811649189
20
46.425325116376612
10
70.039861811649189
20
32.425925116376618
0
LWPOLYLINE
5
125
100
AcDbEntity
8
0
100
AcDbPolyline
90
4
70
1
43
0.0
10
145.89433415718261
20
32.428640119427357
10
145.86855038011208
20
46.42801637541961
10
131.86757412683357
20
46.402229651505408
10
131.89335790390408
20
32.402853395513155
0
LWPOLYLINE
5
126
100
AcDbEntity
8
0
100
AcDbPolyline
90
4
70
1
43
0.0
10
245.96416181164921
20
46.425325116376619
10
231.96516181164918
20
46.425325116376619
10
231.96516181164918
20
32.425925116376618
10
245.96416181164921
20
32.425925116376618
0
LWPOLYLINE
5
127
100
AcDbEntity
8
0
100
AcDbPolyline
90
4
70
1
43
0.0
10
84.039161811649166
20
27.375425116376626
10
70.039861811649189
20
27.375425116376626
10
70.039861811649189
20
13.375965116376626
10
84.039161811649166
20
13.37596511637663
0
LWPOLYLINE
5
128
100
AcDbEntity
8
0
100
AcDbPolyline
90
36
70
1
43
0.0
10
112.61416181164918
20
22.674925116376627
10
112.61416181164918
20
27.375425116376626
10
98.614861811649206
20
27.375425116376615
10
98.614861811649206
20
22.67492511637662
10
97.089461811649187
20
22.674925116376624
10
97.089461811649187
20
25.905125116376624
10
90.339761811649169
20
25.90512511637662
10
90.339761811649169
20
22.67492511637662
10
89.514261811649192
20
22.674925116376624
10
89.514261811649192
20
19.876165116376626
10
90.339761811649169
20
19.876165116376626
10
90.339761811649169
20
13.606095116376625
10
92.064861811649195
20
13.606095116376631
10
92.064861811649195
20
12.405825116376629
10
95.364061811649208
20
12.405825116376626
10
95.364061811649208
20
13.606095116376625
10
97.089461811649187
20
13.606095116376629
10
97.089461811649187
20
18.076435116376629
10
98.614861811649206
20
18.076435116376626
10
98.614861811649206
20
13.375965116376632
10
112.61416181164918
20
13.37596511637663
10
112.61416181164918
20
18.076435116376629
10
114.14016181164918
20
18.076435116376626
10
114.14016181164918
20
13.606095116376625
10
115.86516181164917
20
13.606095116376631
10
115.86516181164917
20
12.405825116376629
10
119.16416181164919
20
12.405825116376626
10
119.16416181164919
20
13.606095116376625
10
120.88916181164919
20
13.606095116376625
10
120.88916181164919
20
19.876165116376626
10
121.71516181164918
20
19.876165116376619
10
121.71516181164918
20
22.67492511637662
10
120.88916181164919
20
22.67492511637662
10
120.88916181164919
20
25.905125116376624
10
114.14016181164918
20
25.905125116376624
10
114.14016181164918
20
22.67492511637662
0
LWPOLYLINE
5
129
100
AcDbEntity
8
0
100
AcDbPolyline
90
4
70
1
43
0.0
10
45.939161811649178
20
13.375965116376634
10
45.939161811649178
20
27.375425116376626
10
31.939861811649166
20
27.375425116376626
10
31.939861811649166
20
13.375965116376625
0
LWPOLYLINE
5
130
100
AcDbEntity
8
0
100
AcDbPolyline
90
4
70
1
43
0.0
10
270.0651618116492
20
46.425325116376598
10
270.0651618116492
20
32.425925116376604
10
284.06416181164923
20
32.425925116376611
10
284.06416181164923
20
46.425325116376605
0
LWPOLYLINE
5
131
100
AcDbEntity
8
0
100
AcDbPolyline
90
4
70
1
43
0.0
10
289.11516181164922
20
32.425925116376618
10
303.11416181164924
20
32.425925116376618
10
303.11416181164924
20
46.425325116376619
10
289.11516181164922
20
46.425325116376627
0
LWPOLYLINE
5
132
100
AcDbEntity
8
0
100
AcDbPolyline
90
4
70
1
43
0.0
10
226.91416181164922
20
84.52542511637661
10
212.9151618116492
20
84.525425116376596
10
212.9151618116492
20
70.526125116376605
10
226.91416181164922
20
70.526125116376605
0
LWPOLYLINE
5
133
100
AcDbEntity
8
0
100
AcDbPolyline
90
4
70
1
43
0.0
10
284.06416181164923
20
89.576125116376602
10
284.06416181164923
20
103.57542511637659
10
270.0651618116492
20
103.57542511637655
10
270.0651618116492
20
89.576125116376559
0
LWPOLYLINE
5
134
100
AcDbEntity
8
0
100
AcDbPolyline
90
4
70
1
43
0.0
10
145.79837848097606
20
84.528051754859504
10
131.79740222769752
20
84.502265030945296
10
131.82318582059031
20
70.502988774783418
10
145.82416207386885
20
70.528775498697627
0
LWPOLYLINE
5
135
100
AcDbEntity
8
0
100
AcDbPolyline
90
4
70
1
43
0.0
10
70.039861811649189
20
70.526125116376605
10
84.039161811649166
20
70.526125116376619
10
84.039161811649166
20
84.52542511637661
10
70.039861811649189
20
84.52542511637661
0
LWPOLYLINE
5
136
100
AcDbEntity
8
0
100
AcDbPolyline
90
4
70
1
43
0.0
10
245.96416181164921
20
84.525425116376624
10
231.96516181164918
20
84.525425116376624
10
231.96516181164918
20
70.526125116376619
10
245.96416181164921
20
70.526125116376619
0
LWPOLYLINE
5
137
100
AcDbEntity
8
0
100
AcDbPolyline
90
4
70
1
43
0.0
10
207.86416181164921
20
84.52542511637661
10
193.86516181164919
20
84.525425116376596
10
193.86516181164919
20
70.526125116376619
10
207.86416181164921
20
70.526125116376619
0
LWPOLYLINE
5
138
100
AcDbEntity
8
0
100
AcDbPolyline
90
4
70
1
43
0.0
10
31.939861811649166
20
70.526125116376605
10
45.939161811649178
20
70.526125116376619
10
45.939161811649178
20
84.52542511637661
10
31.939861811649166
20
84.52542511637661
0
LWPOLYLINE
5
139
100
AcDbEntity
8
0
100
AcDbPolyline
90
4
70
1
43
0.0
10
103.08916181164918
20
84.52542511637661
10
89.089861811649172
20
84.525425116376596
10
89.089861811649172
20
70.526125116376605
10
103.08916181164918
20
70.526125116376605
0
LWPOLYLINE
5
140
100
AcDbEntity
8
0
100
AcDbPolyline
90
4
70
1
43
0.0
10
226.91416181164922
20
89.576125116376602
10
226.91416181164922
20
103.57542511637659
10
212.9151618116492
20
103.57542511637659
10
212.9151618116492
20
89.576125116376559
0
LWPOLYLINE
5
141
100
AcDbEntity
8
0
100
AcDbPolyline
90
4
70
1
43
0.0
10
265.01416181164922
20
103.57542511637659
10
251.01516181164919
20
103.57542511637659
10
251.01516181164919
20
89.576125116376559
10
265.01416181164922
20
89.576125116376559
0
LWPOLYLINE
5
142
100
AcDbEntity
8
0
100
AcDbPolyline
90
4
70
1
43
0.0
10
183.8983138605856
20
84.598223469817796
10
169.89933760391492
20
84.572440429458197
10
169.92512119680768
20
70.57316417329632
10
183.9240974534784
20
70.598947213655947
0
LWPOLYLINE
5
143
100
AcDbEntity
8
0
100
AcDbPolyline
90
4
70
1
43
0.0
10
303.11416181164924
20
103.57542511637661
10
289.11516181164922
20
103.57542511637661
10
289.11516181164922
20
89.576125116376602
10
303.11416181164924
20
89.576125116376602
0
LWPOLYLINE
5
144
100
AcDbEntity
8
0
100
AcDbPolyline
90
4
70
1
43
0.0
10
50.989861811649178
20
84.525425116376596
10
50.989861811649178
20
70.526125116376605
10
64.989161811649154
20
70.526125116376619
10
64.989161811649154
20
84.52542511637661
0
LWPOLYLINE
5
145
100
AcDbEntity
8
0
100
AcDbPolyline
90
4
70
1
43
0.0
10
231.96516181164918
20
89.576125116376602
10
245.96416181164921
20
89.57612511637663
10
245.96416181164921
20
103.57542511637661
10
231.96516181164918
20
103.57542511637661
0
LWPOLYLINE
5
146
100
AcDbEntity
8
0
100
AcDbPolyline
90
4
70
1
43
0.0
10
169.96020705428685
20
51.523196483491567
10
183.95918331095757
20
51.548979523851187
10
183.93339971806478
20
65.548255780013065
10
169.93442346139403
20
65.522472739653466
0
LWPOLYLINE
5
147
100
AcDbEntity
8
0
100
AcDbPolyline
90
4
70
1
43
0.0
10
12.889811811649174
20
84.525425116376596
10
12.889811811649174
20
70.526125116376605
10
26.889361811649195
20
70.526125116376619
10
26.889361811649195
20
84.52542511637661
0
LWPOLYLINE
5
148
100
AcDbEntity
8
0
100
AcDbPolyline
90
4
70
1
43
0.0
10
45.939161811649178
20
65.475425116376599
10
31.939861811649166
20
65.475425116376599
10
31.939861811649166
20
51.4761251163766
10
45.939161811649178
20
51.476125116376593
0
LWPOLYLINE
5
149
100
AcDbEntity
8
0
100
AcDbPolyline
90
4
70
1
43
0.0
10
64.989161811649154
20
65.475425116376599
10
50.989861811649178
20
65.475425116376599
10
50.989861811649178
20
51.4761251163766
10
64.989161811649154
20
51.476125116376593
0
LWPOLYLINE
5
150
100
AcDbEntity
8
0
100
AcDbPolyline
90
4
70
1
43
0.0
10
193.86516181164919
20
65.475425116376613
10
193.86516181164919
20
51.476125116376615
10
207.86416181164921
20
51.476125116376608
10
207.86416181164921
20
65.475425116376613
0
LWPOLYLINE
5
151
100
AcDbEntity
8
0
100
AcDbPolyline
90
4
70
1
43
0.0
10
164.90921562115275
20
51.513893666372041
10
164.88343202825996
20
65.513169922533919
10
150.88445577158927
20
65.48738688217432
10
150.91023936448209
20
51.488110626012414
0
LWPOLYLINE
5
152
100
AcDbEntity
8
0
100
AcDbPolyline
90
4
70
1
43
0.0
10
122.13916181164919
20
65.475425116376599
10
108.13846181164919
20
65.475425116376599
10
108.13846181164919
20
51.4761251163766
10
122.13916181164919
20
51.476125116376593
0
LWPOLYLINE
5
153
100
AcDbEntity
8
0
100
AcDbPolyline
90
4
70
1
43
0.0
10
70.039861811649189
20
51.4761251163766
10
84.039161811649166
20
51.4761251163766
10
84.039161811649166
20
65.475425116376599
10
70.039861811649189
20
65.475425116376599
0
LWPOLYLINE
5
154
100
AcDbEntity
8
0
100
AcDbPolyline
90
4
70
1
43
0.0
10
12.889811811649174
20
32.425925116376618
10
26.889361811649195
20
32.425925116376618
10
26.889361811649195
20
46.425325116376619
10
12.889811811649174
20
46.425325116376612
0
LWPOLYLINE
5
155
100
AcDbEntity
8
0
100
AcDbPolyline
90
4
70
1
43
0.0
10
284.06416181164923
20
65.475425116376599
10
270.0651618116492
20
65.475425116376599
10
270.0651618116492
20
51.4761251163766
10
284.06416181164923
20
51.476125116376593
0
LWPOLYLINE
5
156
100
AcDbEntity
8
0
100
AcDbPolyline
90
4
70
1
43
0.0
10
64.989161811649154
20
46.425325116376612
10
50.989861811649178
20
46.425325116376612
10
50.989861811649178
20
32.425925116376618
10
64.989161811649154
20
32.425925116376625
0
LWPOLYLINE
5
157
100
AcDbEntity
8
0
100
AcDbPolyline
90
4
70
1
43
0.0
10
45.939161811649178
20
32.425925116376625
10
45.939161811649178
20
46.425325116376619
10
31.939861811649166
20
46.425325116376612
10
31.939861811649166
20
32.425925116376618
0
LWPOLYLINE
5
158
100
AcDbEntity
8
0
100
AcDbPolyline
90
4
70
1
43
0.0
10
251.01516181164919
20
32.425925116376604
10
265.01416181164922
20
32.425925116376604
10
265.01416181164922
20
46.425325116376612
10
251.01516181164919
20
46.425325116376612
0
LWPOLYLINE
5
159
100
AcDbEntity
8
0
100
AcDbPolyline
90
4
70
1
43
0.0
10
270.0651618116492
20
70.526125116376605
10
284.06416181164923
20
70.526125116376619
10
284.06416181164923
20
84.52542511637661
10
270.0651618116492
20
84.52542511637661
0
LWPOLYLINE
5
160
100
AcDbEntity
8
0
100
AcDbPolyline
90
4
70
1
43
0.0
10
289.11516181164922
20
65.475425116376613
10
289.11516181164922
20
51.476125116376615
10
303.11416181164924
20
51.476125116376608
10
303.11416181164924
20
65.475425116376613
0
LWPOLYLINE
5
161
100
AcDbEntity
8
0
100
AcDbPolyline
90
4
70
1
43
0.0
10
226.91416181164922
20
51.476125116376593
10
226.91416181164922
20
65.475425116376613
10
212.9151618116492
20
65.475425116376613
10
212.9151618116492
20
51.4761251163766
0
LWPOLYLINE
5
162
100
AcDbEntity
8
0
100
AcDbPolyline
90
4
70
1
43
0.0
10
226.91416181164922
20
46.425325116376605
10
212.9151618116492
20
46.425325116376598
10
212.9151618116492
20
32.425925116376604
10
226.91416181164922
20
32.425925116376611
0
LWPOLYLINE
5
163
100
AcDbEntity
8
0
100
AcDbPolyline
90
4
70
1
43
0.0
10
251.01516181164919
20
84.525425116376596
10
251.01516181164919
20
70.526125116376605
10
265.01416181164922
20
70.526125116376619
10
265.01416181164922
20
84.52542511637661
0
LWPOLYLINE
5
164
100
AcDbEntity
8
0
100
AcDbPolyline
90
4
70
1
43
0.0
10
12.889811811649174
20
65.475425116376599
10
12.889811811649174
20
51.4761251163766
10
26.889361811649195
20
51.476125116376593
10
26.889361811649195
20
65.475425116376599
0
LWPOLYLINE
5
165
100
AcDbEntity
8
0
100
AcDbPolyline
90
4
70
1
43
0.0
10
89.089861811649172
20
65.475425116376599
10
89.089861811649172
20
51.4761251163766
10
103.08916181164918
20
51.476125116376593
10
103.08916181164918
20
65.475425116376599
0
LWPOLYLINE
5
166
100
AcDbEntity
8
0
100
AcDbPolyline
90
4
70
1
43
0.0
10
231.96516181164918
20
51.476125116376615
10
245.96416181164921
20
51.476125116376615
10
245.96416181164921
20
65.475425116376613
10
231.96516181164918
20
65.475425116376613
0
LWPOLYLINE
5
167
100
AcDbEntity
8
0
100
AcDbPolyline
90
4
70
1
43
0.0
10
251.01516181164919
20
51.4761251163766
10
265.01416181164922
20
51.4761251163766
10
265.01416181164922
20
65.475425116376613
10
251.01516181164919
20
65.475425116376613
0
LWPOLYLINE
5
168
100
AcDbEntity
8
0
100
AcDbPolyline
90
4
70
1
43
0.0
10
303.11416181164924
20
84.525425116376624
10
289.11516181164922
20
84.525425116376624
10
289.11516181164922
20
70.526125116376619
10
303.11416181164924
20
70.526125116376619
0
LWPOLYLINE
5
169
100
AcDbEntity
8
0
100
AcDbPolyline
90
36
70
1
43
0.0
10
225.66416181164922
20
19.876165116376619
10
226.49016181164916
20
19.876165116376619
10
226.49016181164916
20
22.67492511637662
10
225.66416181164922
20
22.674925116376624
10
225.66416181164922
20
25.905125116376606
10
218.9151618116492
20
25.905125116376606
10
218.9151618116492
20
22.67492511637662
10
217.38916181164922
20
22.674925116376627
10
217.38916181164922
20
27.375425116376626
10
203.39016181164919
20
27.375425116376615
10
203.39016181164919
20
22.67492511637662
10
201.86416181164918
20
22.674925116376624
10
201.86416181164918
20
25.905125116376606
10
195.11516181164919
20
25.905125116376603
10
195.11516181164919
20
22.67492511637662
10
194.28916181164922
20
22.674925116376624
10
194.28916181164922
20
19.876165116376619
10
195.11516181164919
20
19.876165116376619
10
195.11516181164919
20
13.606095116376625
10
196.84016181164918
20
13.606095116376631
10
196.84016181164918
20
12.405825116376617
10
200.13916181164919
20
12.405825116376612
10
200.13916181164919
20
13.606095116376625
10
201.86416181164918
20
13.606095116376631
10
201.86416181164918
20
18.076435116376615
10
203.39016181164919
20
18.076435116376615
10
203.39016181164919
20
13.375965116376626
10
217.38916181164922
20
13.375965116376626
10
217.38916181164922
20
18.076435116376615
10
218.9151618116492
20
18.076435116376611
10
218.9151618116492
20
13.606095116376625
10
220.64016181164919
20
13.606095116376631
10
220.64016181164919
20
12.405825116376617
10
223.93916181164917
20
12.405825116376612
10
223.93916181164917
20
13.606095116376625
10
225.66416181164922
20
13.606095116376625
0
LWPOLYLINE
5
170
100
AcDbEntity
8
0
100
AcDbPolyline
90
4
70
1
43
0.0
10
265.01416181164922
20
27.375425116376626
10
251.01516181164919
20
27.375425116376626
10
251.01516181164919
20
13.375965116376626
10
265.01416181164922
20
13.37596511637663
0
LWPOLYLINE
5
171
100
AcDbEntity
8
0
100
AcDbPolyline
90
4
70
1
43
0.0
10
145.85924793134802
20
51.478807808892881
10
145.8334643384552
20
65.478084065054759
10
131.83248808517669
20
65.452297341140564
10
131.85827167806946
20
51.453021084978666
0
LWPOLYLINE
5
172
100
AcDbEntity
8
0
100
AcDbPolyline
90
4
70
1
43
0.0
10
245.96416181164921
20
13.375965116376648
10
245.96416181164921
20
27.37542511637664
10
231.96516181164918
20
27.375425116376626
10
231.96516181164918
20
13.375965116376626
0
LWPOLYLINE
5
173
100
AcDbEntity
8
0
100
AcDbPolyline
90
4
70
1
43
0.0
10
150.95462748654759
20
27.38745150256479
10
150.98041137412477
20
13.388015246674314
10
164.97938763079546
20
13.413798287033924
10
164.95360374321825
20
27.413234542924435
0
LWPOLYLINE
5
174
100
AcDbEntity
8
0
100
AcDbPolyline
90
4
70
1
43
0.0
10
289.11516181164922
20
13.375965116376626
10
303.11416181164924
20
13.375965116376626
10
303.11416181164924
20
27.37542511637664
10
289.11516181164922
20
27.37542511637664
0
LWPOLYLINE
5
175
100
AcDbEntity
8
0
100
AcDbPolyline
90
4
70
1
43
0.0
10
184.00357143302304
20
27.448320400403581
10
170.00459517635235
20
27.42253736004395
10
170.03037906392956
20
13.423101104153456
10
184.02935532060019
20
13.448884144513066
0
LWPOLYLINE
5
176
100
AcDbEntity
8
0
100
AcDbPolyline
90
4
70
1
43
0.0
10
12.889811811649174
20
27.375425116376626
10
12.889811811649174
20
13.375965116376626
10
26.889361811649195
20
13.37596511637663
10
26.889361811649195
20
27.375425116376626
0
LWPOLYLINE
5
177
100
AcDbEntity
8
0
100
AcDbPolyline
90
4
70
1
43
0.0
10
50.989861811649178
20
13.375965116376625
10
64.989161811649154
20
13.37596511637663
10
64.989161811649154
20
27.375425116376626
10
50.989861811649178
20
27.375425116376626
0
LWPOLYLINE
5
178
100
AcDbEntity
8
0
100
AcDbPolyline
90
4
70
1
43
0.0
10
270.0651618116492
20
13.375965116376626
10
284.06416181164923
20
13.375965116376626
10
284.06416181164923
20
27.375425116376626
10
270.0651618116492
20
27.375425116376626
0
LWPOLYLINE
5
179
100
AcDbEntity
8
0
100
AcDbPolyline
90
4
70
1
43
0.0
10
131.90265980013498
20
27.352361961531059
10
131.92844368771216
20
13.352925705640576
10
145.92941994099067
20
13.378712429554763
10
145.90363605341349
20
27.378148685445275
0
CIRCLE
5
180
100
AcDbEntity
8
0
100
AcDbCircle
10
301.63916181164922
20
110.59982511637655
30
2.2204460492503131e-15
40
1.4999999999999856
210
0
220
2.775557561562892e-17
230
1
0
LWPOLYLINE
5
181
100
AcDbEntity
8
0
100
AcDbPolyline
90
8
70
1
43
0.0
10
308.13916181164927
20
114.59982511637656
42
-0.41421356237308815
10
311.13916181164927
20
111.59982511637656
10
311.13916181164927
20
5.3500181163766065
42
-0.41421356237309764
10
308.13916181164922
20
2.3500181163766158
10
7.8652464116491672
20
2.35001811637665
42
-0.41421356237309209
10
4.8652464116491778
20
5.3500181163766314
10
4.8652464116491778
20
111.59982511637654
42
-0.41421356237308982
10
7.8652464116491672
20
114.59982511637655
0
CIRCLE
5
182
100
AcDbEntity
8
0
100
AcDbCircle
10
236.60060366325604
20
110.59982511637655
30
2.2204460492503131e-15
40
1.4999999999999856
210
0
220
2.775557561562892e-17
230
1
0
CIRCLE
5
183
100
AcDbEntity
8
0
100
AcDbCircle
10
236.60060366325604
20
6.3500181163765976
30
2.2204460492503131e-15
40
1.4999999999999856
210
0
220
2.775557561562892e-17
230
1
0
CIRCLE
5
184
100
AcDbEntity
8
0
100
AcDbCircle
10
79.403804560042431
20
110.59982511637658
30
2.2204460492503131e-15
40
1.4999999999999991
210
0
220
-2.775557561562892e-17
230
1
0
CIRCLE
5
185
100
AcDbEntity
8
0
100
AcDbCircle
10
79.403804560042431
20
6.3500181163766234
30
0
40
1.4999999999999991
210
0
220
-2.775557561562892e-17
230
1
0
ENDSEC
0
SECTION
2
OBJECTS
0
DICTIONARY
5
C
100
AcDbDictionary
3
ACAD_GROUP
350
D
3
ACAD_MLINESTYLE
350
17
0
DICTIONARY
5
D
100
AcDbDictionary
0
DICTIONARY
5
1A
330
C
100
AcDbDictionary
0
DICTIONARY
5
17
100
AcDbDictionary
0
ENDSEC
0
EOF
